<svg width="20" height="20" viewBox="0 0 20 20" fill="none" xmlns="http://www.w3.org/2000/svg">
<g clip-path="url(#clip0_1460_119)">
<path d="M10.8333 16.3217L12.5 14.655L13.6784 15.8334L10.5892 18.9226C10.2638 19.248 9.73626 19.248 9.41082 18.9226L6.32163 15.8334L7.50001 14.655L9.16668 16.3217V10.8334H10.8333V16.3217ZM7.50001 0.833374C9.9974 0.833374 12.1726 2.20741 13.3146 4.23995C13.5916 4.19239 13.8762 4.16671 14.1667 4.16671C16.9281 4.16671 19.1667 6.40528 19.1667 9.16671C19.1667 11.9281 16.9281 14.1667 14.1667 14.1667C13.5821 14.1667 13.0212 14.0658 12.5 13.8811V10.8334C12.5 9.9129 11.7538 9.16671 10.8333 9.16671H9.16668C8.2462 9.16671 7.50001 9.9129 7.50001 10.8334V14.1667C3.81811 14.1667 0.833344 11.1819 0.833344 7.50004C0.833344 3.81814 3.81811 0.833374 7.50001 0.833374Z" fill="#111111"/>
</g>
<defs>
<clipPath id="clip0_1460_119">
<rect width="20" height="20" fill="white"/>
</clipPath>
</defs>
</svg>
