<svg width="20" height="20" viewBox="0 0 20 20" fill="none" xmlns="http://www.w3.org/2000/svg">
<path d="M8.33337 2.49967H11.6667V0.833008H13.3334V2.49967H14.1667C16.0077 2.49967 17.5 3.99206 17.5 5.83301V6.66634H19.1667V8.33301H17.5V11.6663H19.1667V13.333H17.5V14.1663C17.5 16.0073 16.0077 17.4997 14.1667 17.4997H13.3334V19.1663H11.6667V17.4997H8.33337V19.1663H6.66671V17.4997H5.83337C3.99243 17.4997 2.50004 16.0073 2.50004 14.1663V13.333H0.833374V11.6663H2.50004V8.33301H0.833374V6.66634H2.50004V5.83301C2.50004 3.99206 3.99243 2.49967 5.83337 2.49967H6.66671V0.833008H8.33337V2.49967ZM5.83337 4.16634C4.9129 4.16634 4.16671 4.91253 4.16671 5.83301V14.1663C4.16671 15.0868 4.9129 15.833 5.83337 15.833H14.1667C15.0872 15.833 15.8334 15.0868 15.8334 14.1663V5.83301C15.8334 4.91253 15.0872 4.16634 14.1667 4.16634H5.83337ZM11.8368 6.67529C12.6774 6.76051 13.3334 7.46997 13.3334 8.33301V11.6663C13.3334 12.5868 12.5872 13.333 11.6667 13.333H8.33337C7.47033 13.333 6.76088 12.677 6.67566 11.8364L6.66671 11.6663V8.33301C6.66671 7.41253 7.4129 6.66634 8.33337 6.66634H11.6667L11.8368 6.67529ZM8.33337 11.6663H11.6667V8.33301H8.33337V11.6663Z" fill="#111111"/>
</svg>
