<svg width="20" height="20" viewBox="0 0 20 20" fill="none" xmlns="http://www.w3.org/2000/svg">
<path fill-rule="evenodd" clip-rule="evenodd" d="M2.5 4.16667C2.5 3.24619 3.24619 2.5 4.16667 2.5C5.08714 2.5 5.83333 3.24619 5.83333 4.16667C5.83333 5.08714 5.08714 5.83333 4.16667 5.83333C3.24619 5.83333 2.5 5.08714 2.5 4.16667ZM8.33333 4.16667C8.33333 3.24619 9.07953 2.5 10 2.5C10.9205 2.5 11.6667 3.24619 11.6667 4.16667C11.6667 5.08714 10.9205 5.83333 10 5.83333C9.07953 5.83333 8.33333 5.08714 8.33333 4.16667ZM14.1667 4.16667C14.1667 3.24619 14.9129 2.5 15.8333 2.5C16.7538 2.5 17.5 3.24619 17.5 4.16667C17.5 5.08714 16.7538 5.83333 15.8333 5.83333C14.9129 5.83333 14.1667 5.08714 14.1667 4.16667ZM2.5 10C2.5 9.07953 3.24619 8.33333 4.16667 8.33333C5.08714 8.33333 5.83333 9.07953 5.83333 10C5.83333 10.9205 5.08714 11.6667 4.16667 11.6667C3.24619 11.6667 2.5 10.9205 2.5 10ZM8.33333 10C8.33333 9.07953 9.07953 8.33333 10 8.33333C10.9205 8.33333 11.6667 9.07953 11.6667 10C11.6667 10.9205 10.9205 11.6667 10 11.6667C9.07953 11.6667 8.33333 10.9205 8.33333 10ZM14.1667 10C14.1667 9.07953 14.9129 8.33333 15.8333 8.33333C16.7538 8.33333 17.5 9.07953 17.5 10C17.5 10.9205 16.7538 11.6667 15.8333 11.6667C14.9129 11.6667 14.1667 10.9205 14.1667 10ZM2.5 15.8333C2.5 14.9129 3.24619 14.1667 4.16667 14.1667C5.08714 14.1667 5.83333 14.9129 5.83333 15.8333C5.83333 16.7538 5.08714 17.5 4.16667 17.5C3.24619 17.5 2.5 16.7538 2.5 15.8333ZM8.33333 15.8333C8.33333 14.9129 9.07953 14.1667 10 14.1667C10.9205 14.1667 11.6667 14.9129 11.6667 15.8333C11.6667 16.7538 10.9205 17.5 10 17.5C9.07953 17.5 8.33333 16.7538 8.33333 15.8333ZM14.1667 15.8333C14.1667 14.9129 14.9129 14.1667 15.8333 14.1667C16.7538 14.1667 17.5 14.9129 17.5 15.8333C17.5 16.7538 16.7538 17.5 15.8333 17.5C14.9129 17.5 14.1667 16.7538 14.1667 15.8333Z" fill="#111111"/>
</svg>
