<svg width="20" height="20" viewBox="0 0 20 20" fill="none" xmlns="http://www.w3.org/2000/svg">
<path d="M9.99998 0.833496C15.0626 0.833496 19.1666 4.93755 19.1666 10.0002C19.1666 15.0628 15.0626 19.1668 9.99998 19.1668C4.93737 19.1668 0.833313 15.0628 0.833313 10.0002C0.833313 4.93755 4.93737 0.833496 9.99998 0.833496ZM9.99998 2.50016C5.85784 2.50016 2.49998 5.85803 2.49998 10.0002C2.49998 14.1423 5.85784 17.5002 9.99998 17.5002C14.1421 17.5002 17.5 14.1423 17.5 10.0002C17.5 5.85803 14.1421 2.50016 9.99998 2.50016ZM9.99998 10.8335C11.9426 10.8335 13.5731 12.1624 14.0356 13.9593L12.421 14.3743C12.1434 13.296 11.1636 12.5002 9.99998 12.5002C8.83632 12.5002 7.85657 13.296 7.57892 14.3743L5.96434 13.9593C6.42683 12.1624 8.05735 10.8335 9.99998 10.8335ZM7.08331 6.66683C7.77367 6.66683 8.33331 7.22647 8.33331 7.91683C8.33331 8.60719 7.77367 9.16683 7.08331 9.16683C6.39296 9.16683 5.83331 8.60719 5.83331 7.91683C5.83331 7.22647 6.39296 6.66683 7.08331 6.66683ZM12.9166 6.66683C13.607 6.66683 14.1666 7.22647 14.1666 7.91683C14.1666 8.60719 13.607 9.16683 12.9166 9.16683C12.2263 9.16683 11.6666 8.60719 11.6666 7.91683C11.6666 7.22647 12.2263 6.66683 12.9166 6.66683Z" fill="#111111"/>
</svg>
